<svg preserveAspectRatio="none" overflow="visible" style="display: block;" width="150" height="75" viewBox="0 0 150 75" fill="none" xmlns="http://www.w3.org/2000/svg">
<g id="Deloitte">
<g id="Deloitte_2">
<path d="M119.7 44.6656C119.7 43.1003 120.888 41.8303 122.35 41.8303C123.814 41.8303 125 43.1003 125 44.6656C125 46.2309 123.814 47.5 122.35 47.5C120.888 47.5 119.7 46.2309 119.7 44.6656Z" fill="#A1A1AA"/>
<path d="M35.1724 37.157C35.1724 35.3612 34.848 34.0289 34.1992 33.1609C33.5496 32.2938 32.5656 31.8606 31.2427 31.8606H29.8354V42.8423H30.9121C32.3815 42.8423 33.4583 42.3763 34.1439 41.4411C34.8288 40.5075 35.1724 39.0792 35.1724 37.157ZM40.191 36.97C40.191 40.2417 39.3689 42.7627 37.7246 44.5323C36.0804 46.3027 33.7689 47.1879 30.7894 47.1879H25V27.5832H31.1936C34.0664 27.5832 36.2843 28.388 37.8473 29.9967C39.4095 31.6063 40.191 33.9297 40.191 36.97Z" fill="#A1A1AA"/>
<path d="M56.2277 47.1877H60.8346V27.5009H56.2277V47.1877Z" fill="#A1A1AA"/>
<path d="M67.3062 39.8445C67.3062 41.0997 67.4596 42.057 67.7656 42.715C68.0724 43.3737 68.5861 43.7027 69.3086 43.7027C70.0233 43.7027 70.5287 43.3737 70.8232 42.715C71.1177 42.057 71.2642 41.0997 71.2642 39.8445C71.2642 38.5958 71.1154 37.654 70.8171 37.0182C70.518 36.3808 70.0081 36.0617 69.2849 36.0617C68.5778 36.0617 68.0724 36.3792 67.7656 37.0109C67.4596 37.6434 67.3062 38.5876 67.3062 39.8445ZM75.9531 39.8445C75.9531 42.2359 75.3671 44.1014 74.1922 45.4387C73.0181 46.7767 71.3746 47.4461 69.2618 47.4461C67.2356 47.4461 65.6228 46.7619 64.4256 45.3935C63.227 44.0251 62.628 42.176 62.628 39.8445C62.628 37.4604 63.2148 35.608 64.3897 34.2872C65.5645 32.9664 67.2118 32.3059 69.3331 32.3059C70.6438 32.3059 71.8034 32.612 72.808 33.2232C73.8134 33.8343 74.5896 34.7097 75.1348 35.85C75.6809 36.9887 75.9531 38.321 75.9531 39.8445Z" fill="#A1A1AA"/>
<path d="M77.7827 47.1875H82.3903V32.5642H77.7827V47.1875Z" fill="#A1A1AA"/>
<path d="M77.7826 30.7955H82.3902V27.5H77.7826V30.7955Z" fill="#A1A1AA"/>
<path d="M91.725 43.4579C92.347 43.4579 93.0878 43.2889 93.9521 42.9534V46.6328C93.3309 46.9248 92.7404 47.134 92.179 47.2579C91.6177 47.3834 90.9588 47.4458 90.205 47.4458C88.6581 47.4458 87.543 47.0298 86.8581 46.1996C86.1764 45.3694 85.8343 44.0945 85.8343 42.3742V36.346H84.2208V32.5657H85.8343V28.8313L90.4773 27.9674V32.5657H93.4169V36.346H90.4773V42.0378C90.4773 42.9845 90.8937 43.4579 91.725 43.4579Z" fill="#A1A1AA"/>
<path d="M102.389 43.4579C103.011 43.4579 103.752 43.2889 104.616 42.9534V46.6328C103.996 46.9248 103.404 47.134 102.843 47.2579C102.281 47.3834 101.624 47.4458 100.869 47.4458C99.322 47.4458 98.207 47.0298 97.5236 46.1996C96.8403 45.3694 96.4983 44.0945 96.4983 42.3742V36.346H94.8839V32.5657H96.4983V28.7747L101.14 27.9674V32.5657H104.081V36.346H101.14V42.0378C101.14 42.9845 101.557 43.4579 102.389 43.4579Z" fill="#A1A1AA"/>
<path d="M110.43 38.0629C110.493 37.2622 110.707 36.6756 111.072 36.3007C111.438 35.9266 111.891 35.7396 112.432 35.7396C113.023 35.7396 113.492 35.9496 113.84 36.3729C114.191 36.7937 114.373 37.3574 114.388 38.0629H110.43ZM116.927 34.0299C115.832 32.8814 114.278 32.3063 112.268 32.3063C110.155 32.3063 108.529 32.9667 107.39 34.2875C106.251 35.6083 105.681 37.5034 105.681 39.9728C105.681 42.3642 106.297 44.2084 107.525 45.503C108.755 46.7975 110.481 47.4456 112.704 47.4456C113.772 47.4456 114.691 47.3677 115.461 47.2127C116.226 47.0593 116.967 46.7819 117.685 46.3816L116.978 43.0861C116.455 43.3142 115.958 43.4897 115.489 43.6054C114.811 43.7736 114.067 43.8581 113.257 43.8581C112.369 43.8581 111.668 43.6259 111.154 43.1616C110.641 42.6964 110.367 42.0549 110.335 41.2378H118.57V38.9924C118.57 36.8323 118.023 35.1776 116.927 34.0299Z" fill="#A1A1AA"/>
<path d="M46.3054 38.0629C46.3683 37.2622 46.5822 36.6756 46.9472 36.3007C47.3131 35.9266 47.7664 35.7396 48.3086 35.7396C48.8976 35.7396 49.3669 35.9496 49.7159 36.3729C50.0663 36.7937 50.2481 37.3574 50.2643 38.0629H46.3054ZM52.8035 34.0299C51.7076 32.8814 50.1545 32.3063 48.1437 32.3063C46.0301 32.3063 44.4049 32.9667 43.266 34.2875C42.1272 35.6083 41.5567 37.5034 41.5567 39.9728C41.5567 42.3642 42.1718 44.2084 43.4019 45.503C44.6305 46.7975 46.3567 47.4456 48.5801 47.4456C49.6476 47.4456 50.5663 47.3677 51.3363 47.2127C52.1017 47.0593 52.8426 46.7819 53.562 46.3816L52.8533 43.0861C52.3311 43.3142 51.8341 43.4897 51.3655 43.6054C50.686 43.7736 49.9428 43.8581 49.1329 43.8581C48.2456 43.8581 47.544 43.6259 47.0302 43.1616C46.5156 42.6964 46.2426 42.0549 46.2112 41.2378H54.4462V38.9924C54.4462 36.8323 53.8986 35.1776 52.8035 34.0299Z" fill="#A1A1AA"/>
</g>
</g>
</svg>
