<svg preserveAspectRatio="none" overflow="visible" style="display: block;" width="37.3998" height="9.84793" viewBox="0 0 37.3998 9.84793" fill="none" xmlns="http://www.w3.org/2000/svg">
<path id="Vector" d="M7.03633 2.43169C7.03633 3.42197 6.53795 4.08893 5.53952 4.43087V4.45796C6.06631 4.53597 6.54611 4.80526 6.88766 5.21463C7.23821 5.62005 7.41391 6.16429 7.41391 6.84817C7.41391 7.73181 7.12164 8.42077 6.53711 8.91591C5.95342 9.41105 5.15772 9.65905 4.15084 9.65905H0V0H3.88223C4.86208 0 5.63075 0.220908 6.18825 0.66188C6.7542 1.09439 7.03633 1.68432 7.03633 2.43169ZM4.07059 4.03984C4.71763 4.03984 5.17123 3.91288 5.43225 3.66065C5.69241 3.40927 5.82249 3.04448 5.82249 2.56711C5.82249 2.10752 5.68735 1.74696 5.41873 1.48627C5.14843 1.21542 4.74467 1.08085 4.20491 1.08085H1.21214V4.03899L4.07059 4.03984ZM1.21214 8.5782H4.27248C5.5581 8.5782 6.20008 8.00181 6.20008 6.84902C6.20008 6.32679 6.04803 5.90783 5.74225 5.59297C5.44576 5.27726 5.04537 5.11984 4.54278 5.11984H1.21214V8.5782ZM14.1487 2.7694V9.65905H13.07V8.83381H13.043C12.8267 9.12159 12.5302 9.36535 12.1527 9.5634C11.7751 9.75215 11.3164 9.84694 10.7783 9.84694C10.1034 9.84694 9.55099 9.65735 9.1202 9.27986C8.68856 8.89221 8.47231 8.32513 8.47231 7.57776V2.76855H9.55099V7.30776C9.55099 7.78428 9.67262 8.17109 9.91505 8.46902C10.1575 8.75679 10.5351 8.90068 11.0469 8.90068C11.6501 8.90068 12.1349 8.73055 12.5032 8.38776C12.8808 8.04582 13.0692 7.60485 13.0692 7.064V2.76855L14.1487 2.7694ZM16.3094 1.4321C16.1407 1.42972 15.9782 1.36767 15.8507 1.25689C15.7804 1.20037 15.7244 1.12813 15.6869 1.04597C15.6495 0.963803 15.6319 0.874001 15.6353 0.78376C15.6353 0.585703 15.7071 0.428274 15.8507 0.310625C15.9782 0.199854 16.1407 0.137799 16.3094 0.135423C16.48 0.135423 16.6329 0.194669 16.7681 0.310625C16.9117 0.428274 16.9835 0.585703 16.9835 0.78376C16.9835 0.981816 16.9117 1.13924 16.7681 1.25689C16.6422 1.37041 16.4787 1.43288 16.3094 1.4321ZM16.8483 2.7694V9.65905H15.7705V2.7694H16.8483ZM19.4534 0V9.65905H18.3747V0H19.4534ZM26.9526 0V9.65905H25.8739V8.80757H25.8469C25.3173 9.50162 24.5976 9.84779 23.6904 9.84779C23.1347 9.85319 22.5884 9.70375 22.1125 9.41613C21.6454 9.1182 21.2729 8.695 20.9941 8.14569C20.7238 7.59639 20.5895 6.95228 20.5895 6.21422C20.5895 5.47532 20.7246 4.83206 20.9941 4.28275C21.2729 3.7326 21.6454 3.31448 22.1133 3.02586C22.5859 2.72996 23.1331 2.5755 23.6904 2.58065C24.6339 2.58065 25.3527 2.94037 25.8469 3.66065H25.8739V0H26.9526ZM23.7985 8.90237C24.4362 8.90237 24.9388 8.65861 25.308 8.17278C25.6855 7.67764 25.8739 7.02422 25.8739 6.21422C25.8739 5.40338 25.6855 4.75504 25.308 4.26921C24.9397 3.77322 24.4362 3.52608 23.7977 3.52608C23.3491 3.52608 22.9622 3.65219 22.6387 3.90441C22.3152 4.15664 22.0728 4.48927 21.9106 4.90316C21.7466 5.32055 21.6643 5.76566 21.6682 6.21422C21.6682 6.68228 21.7493 7.12325 21.9106 7.53798C22.0728 7.9434 22.3152 8.27181 22.6387 8.52403C22.9622 8.77626 23.3483 8.90237 23.7985 8.90237ZM31.0764 3.59379C31.0764 2.57558 31.3602 1.74696 31.9262 1.10793C32.4921 0.459592 33.3284 0.134577 34.4341 0.134577C34.9479 0.129111 35.4558 0.2451 35.9165 0.473134C36.3659 0.688965 36.7257 1.0089 36.9952 1.4321C37.2647 1.85529 37.3998 2.35467 37.3998 2.93191C37.3998 3.49053 37.2689 3.98144 37.0087 4.40463C36.7575 4.80809 36.4328 5.16066 36.0517 5.444C35.6825 5.71485 35.1935 6.02971 34.5819 6.38943C33.8892 6.78554 33.3596 7.13679 32.9913 7.44319C32.6445 7.72958 32.3949 8.11666 32.2767 8.55112V8.5782H37.2647V9.6582H30.8069C30.8069 8.06444 31.7327 6.72714 33.5843 5.64629L34.1232 5.33567C34.6807 5.02081 35.0896 4.76858 35.3506 4.57984C35.6039 4.40823 35.8157 4.1821 35.9706 3.91796C36.1142 3.65642 36.186 3.33225 36.186 2.9446C36.186 2.46808 36.0517 2.06266 35.7822 1.72918C35.5119 1.38724 35.0541 1.21627 34.407 1.21627C33.6426 1.21627 33.0986 1.4321 32.7759 1.8646C32.4524 2.29627 32.2902 2.87266 32.2902 3.59379H31.0764Z" fill="#1A2B3B"/>
</svg>
